<svg version="1.1" xmlns="http://www.w3.org/2000/svg" xmlns:xlink="http://www.w3.org/1999/xlink" width="400" height="400" viewBox="0 0 400 400"><defs/><g><rect fill="rgb(255,255,255)" stroke="none" x="0" y="0" width="400" height="400" transform="matrix(1 0 0 1 0 0)" fill-opacity="1"/><path fill="none" stroke="rgb(200,100,100)" paint-order="fill stroke markers" d=" M -80 0 C -80 -44.182779984 -44.182779984 -80 0 -80 C 44.182779984 -80 80 -44.182779984 80 0 C 80 44.182779984 44.182779984 80 0 80 C -44.182779984 80 -80 44.182779984 -80 0 Z" stroke-opacity="1" stroke-linecap="round" stroke-miterlimit="10" stroke-dasharray=""/><path fill="none" stroke="rgb(200,100,100)" paint-order="fill stroke markers" d=" M -80 80 C -80 35.817220016 -44.182779984 0 0 0 C 44.182779984 0 80 35.817220016 80 80 C 80 124.182779984 44.182779984 160 0 160 C -44.182779984 160 -80 124.182779984 -80 80 Z" stroke-opacity="1" stroke-linecap="round" stroke-miterlimit="10" stroke-dasharray=""/><path fill="none" stroke="rgb(200,100,100)" paint-order="fill stroke markers" d=" M -80 160 C -80 115.817220016 -44.182779984 80 0 80 C 44.182779984 80 80 115.817220016 80 160 C 80 204.182779984 44.182779984 240 0 240 C -44.182779984 240 -80 204.182779984 -80 160 Z" stroke-opacity="1" stroke-linecap="round" stroke-miterlimit="10" stroke-dasharray=""/><path fill="none" stroke="rgb(200,100,100)" paint-order="fill stroke markers" d=" M -80 240 C -80 195.817220016 -44.182779984 160 0 160 C 44.182779984 160 80 195.817220016 80 240 C 80 284.182779984 44.182779984 320 0 320 C -44.182779984 320 -80 284.182779984 -80 240 Z" stroke-opacity="1" stroke-linecap="round" stroke-miterlimit="10" stroke-dasharray=""/><path fill="none" stroke="rgb(200,100,100)" paint-order="fill stroke markers" d=" M -80 320 C -80 275.817220016 -44.182779984 240 0 240 C 44.182779984 240 80 275.817220016 80 320 C 80 364.182779984 44.182779984 400 0 400 C -44.182779984 400 -80 364.182779984 -80 320 Z" stroke-opacity="1" stroke-linecap="round" stroke-miterlimit="10" stroke-dasharray=""/><path fill="none" stroke="rgb(200,100,100)" paint-order="fill stroke markers" d=" M -80 400 C -80 355.817220016 -44.182779984 320 0 320 C 44.182779984 320 80 355.817220016 80 400 C 80 444.182779984 44.182779984 480 0 480 C -44.182779984 480 -80 444.182779984 -80 400 Z" stroke-opacity="1" stroke-linecap="round" stroke-miterlimit="10" stroke-dasharray=""/><path fill="none" stroke="rgb(200,100,100)" paint-order="fill stroke markers" d=" M 0 0 C 0 -44.182779984 35.817220016 -80 80 -80 C 124.182779984 -80 160 -44.182779984 160 0 C 160 44.182779984 124.182779984 80 80 80 C 35.817220016 80 0 44.182779984 0 0 Z" stroke-opacity="1" stroke-linecap="round" stroke-miterlimit="10" stroke-dasharray=""/><path fill="none" stroke="rgb(200,100,100)" paint-order="fill stroke markers" d=" M 0 80 C 0 35.817220016 35.817220016 0 80 0 C 124.182779984 0 160 35.817220016 160 80 C 160 124.182779984 124.182779984 160 80 160 C 35.817220016 160 0 124.182779984 0 80 Z" stroke-opacity="1" stroke-linecap="round" stroke-miterlimit="10" stroke-dasharray=""/><path fill="none" stroke="rgb(200,100,100)" paint-order="fill stroke markers" d=" M 0 160 C 0 115.817220016 35.817220016 80 80 80 C 124.182779984 80 160 115.817220016 160 160 C 160 204.182779984 124.182779984 240 80 240 C 35.817220016 240 0 204.182779984 0 160 Z" stroke-opacity="1" stroke-linecap="round" stroke-miterlimit="10" stroke-dasharray=""/><path fill="none" stroke="rgb(200,100,100)" paint-order="fill stroke markers" d=" M 0 240 C 0 195.817220016 35.817220016 160 80 160 C 124.182779984 160 160 195.817220016 160 240 C 160 284.182779984 124.182779984 320 80 320 C 35.817220016 320 0 284.182779984 0 240 Z" stroke-opacity="1" stroke-linecap="round" stroke-miterlimit="10" stroke-dasharray=""/><path fill="none" stroke="rgb(200,100,100)" paint-order="fill stroke markers" d=" M 0 320 C 0 275.817220016 35.817220016 240 80 240 C 124.182779984 240 160 275.817220016 160 320 C 160 364.182779984 124.182779984 400 80 400 C 35.817220016 400 0 364.182779984 0 320 Z" stroke-opacity="1" stroke-linecap="round" stroke-miterlimit="10" stroke-dasharray=""/><path fill="none" stroke="rgb(200,100,100)" paint-order="fill stroke markers" d=" M 0 400 C 0 355.817220016 35.817220016 320 80 320 C 124.182779984 320 160 355.817220016 160 400 C 160 444.182779984 124.182779984 480 80 480 C 35.817220016 480 0 444.182779984 0 400 Z" stroke-opacity="1" stroke-linecap="round" stroke-miterlimit="10" stroke-dasharray=""/><path fill="none" stroke="rgb(200,100,100)" paint-order="fill stroke markers" d=" M 80 0 C 80 -44.182779984 115.817220016 -80 160 -80 C 204.182779984 -80 240 -44.182779984 240 0 C 240 44.182779984 204.182779984 80 160 80 C 115.817220016 80 80 44.182779984 80 0 Z" stroke-opacity="1" stroke-linecap="round" stroke-miterlimit="10" stroke-dasharray=""/><path fill="none" stroke="rgb(200,100,100)" paint-order="fill stroke markers" d=" M 80 80 C 80 35.817220016 115.817220016 0 160 0 C 204.182779984 0 240 35.817220016 240 80 C 240 124.182779984 204.182779984 160 160 160 C 115.817220016 160 80 124.182779984 80 80 Z" stroke-opacity="1" stroke-linecap="round" stroke-miterlimit="10" stroke-dasharray=""/><path fill="none" stroke="rgb(200,100,100)" paint-order="fill stroke markers" d=" M 80 160 C 80 115.817220016 115.817220016 80 160 80 C 204.182779984 80 240 115.817220016 240 160 C 240 204.182779984 204.182779984 240 160 240 C 115.817220016 240 80 204.182779984 80 160 Z" stroke-opacity="1" stroke-linecap="round" stroke-miterlimit="10" stroke-dasharray=""/><path fill="none" stroke="rgb(200,100,100)" paint-order="fill stroke markers" d=" M 80 240 C 80 195.817220016 115.817220016 160 160 160 C 204.182779984 160 240 195.817220016 240 240 C 240 284.182779984 204.182779984 320 160 320 C 115.817220016 320 80 284.182779984 80 240 Z" stroke-opacity="1" stroke-linecap="round" stroke-miterlimit="10" stroke-dasharray=""/><path fill="none" stroke="rgb(200,100,100)" paint-order="fill stroke markers" d=" M 80 320 C 80 275.817220016 115.817220016 240 160 240 C 204.182779984 240 240 275.817220016 240 320 C 240 364.182779984 204.182779984 400 160 400 C 115.817220016 400 80 364.182779984 80 320 Z" stroke-opacity="1" stroke-linecap="round" stroke-miterlimit="10" stroke-dasharray=""/><path fill="none" stroke="rgb(200,100,100)" paint-order="fill stroke markers" d=" M 80 400 C 80 355.817220016 115.817220016 320 160 320 C 204.182779984 320 240 355.817220016 240 400 C 240 444.182779984 204.182779984 480 160 480 C 115.817220016 480 80 444.182779984 80 400 Z" stroke-opacity="1" stroke-linecap="round" stroke-miterlimit="10" stroke-dasharray=""/><path fill="none" stroke="rgb(200,100,100)" paint-order="fill stroke markers" d=" M 160 0 C 160 -44.182779984 195.817220016 -80 240 -80 C 284.182779984 -80 320 -44.182779984 320 0 C 320 44.182779984 284.182779984 80 240 80 C 195.817220016 80 160 44.182779984 160 0 Z" stroke-opacity="1" stroke-linecap="round" stroke-miterlimit="10" stroke-dasharray=""/><path fill="none" stroke="rgb(200,100,100)" paint-order="fill stroke markers" d=" M 160 80 C 160 35.817220016 195.817220016 0 240 0 C 284.182779984 0 320 35.817220016 320 80 C 320 124.182779984 284.182779984 160 240 160 C 195.817220016 160 160 124.182779984 160 80 Z" stroke-opacity="1" stroke-linecap="round" stroke-miterlimit="10" stroke-dasharray=""/><path fill="none" stroke="rgb(200,100,100)" paint-order="fill stroke markers" d=" M 160 160 C 160 115.817220016 195.817220016 80 240 80 C 284.182779984 80 320 115.817220016 320 160 C 320 204.182779984 284.182779984 240 240 240 C 195.817220016 240 160 204.182779984 160 160 Z" stroke-opacity="1" stroke-linecap="round" stroke-miterlimit="10" stroke-dasharray=""/><path fill="none" stroke="rgb(200,100,100)" paint-order="fill stroke markers" d=" M 160 240 C 160 195.817220016 195.817220016 160 240 160 C 284.182779984 160 320 195.817220016 320 240 C 320 284.182779984 284.182779984 320 240 320 C 195.817220016 320 160 284.182779984 160 240 Z" stroke-opacity="1" stroke-linecap="round" stroke-miterlimit="10" stroke-dasharray=""/><path fill="none" stroke="rgb(200,100,100)" paint-order="fill stroke markers" d=" M 160 320 C 160 275.817220016 195.817220016 240 240 240 C 284.182779984 240 320 275.817220016 320 320 C 320 364.182779984 284.182779984 400 240 400 C 195.817220016 400 160 364.182779984 160 320 Z" stroke-opacity="1" stroke-linecap="round" stroke-miterlimit="10" stroke-dasharray=""/><path fill="none" stroke="rgb(200,100,100)" paint-order="fill stroke markers" d=" M 160 400 C 160 355.817220016 195.817220016 320 240 320 C 284.182779984 320 320 355.817220016 320 400 C 320 444.182779984 284.182779984 480 240 480 C 195.817220016 480 160 444.182779984 160 400 Z" stroke-opacity="1" stroke-linecap="round" stroke-miterlimit="10" stroke-dasharray=""/><path fill="none" stroke="rgb(200,100,100)" paint-order="fill stroke markers" d=" M 240 0 C 240 -44.182779984 275.817220016 -80 320 -80 C 364.182779984 -80 400 -44.182779984 400 0 C 400 44.182779984 364.182779984 80 320 80 C 275.817220016 80 240 44.182779984 240 0 Z" stroke-opacity="1" stroke-linecap="round" stroke-miterlimit="10" stroke-dasharray=""/><path fill="none" stroke="rgb(200,100,100)" paint-order="fill stroke markers" d=" M 240 80 C 240 35.817220016 275.817220016 0 320 0 C 364.182779984 0 400 35.817220016 400 80 C 400 124.182779984 364.182779984 160 320 160 C 275.817220016 160 240 124.182779984 240 80 Z" stroke-opacity="1" stroke-linecap="round" stroke-miterlimit="10" stroke-dasharray=""/><path fill="none" stroke="rgb(200,100,100)" paint-order="fill stroke markers" d=" M 240 160 C 240 115.817220016 275.817220016 80 320 80 C 364.182779984 80 400 115.817220016 400 160 C 400 204.182779984 364.182779984 240 320 240 C 275.817220016 240 240 204.182779984 240 160 Z" stroke-opacity="1" stroke-linecap="round" stroke-miterlimit="10" stroke-dasharray=""/><path fill="none" stroke="rgb(200,100,100)" paint-order="fill stroke markers" d=" M 240 240 C 240 195.817220016 275.817220016 160 320 160 C 364.182779984 160 400 195.817220016 400 240 C 400 284.182779984 364.182779984 320 320 320 C 275.817220016 320 240 284.182779984 240 240 Z" stroke-opacity="1" stroke-linecap="round" stroke-miterlimit="10" stroke-dasharray=""/><path fill="none" stroke="rgb(200,100,100)" paint-order="fill stroke markers" d=" M 240 320 C 240 275.817220016 275.817220016 240 320 240 C 364.182779984 240 400 275.817220016 400 320 C 400 364.182779984 364.182779984 400 320 400 C 275.817220016 400 240 364.182779984 240 320 Z" stroke-opacity="1" stroke-linecap="round" stroke-miterlimit="10" stroke-dasharray=""/><path fill="none" stroke="rgb(200,100,100)" paint-order="fill stroke markers" d=" M 240 400 C 240 355.817220016 275.817220016 320 320 320 C 364.182779984 320 400 355.817220016 400 400 C 400 444.182779984 364.182779984 480 320 480 C 275.817220016 480 240 444.182779984 240 400 Z" stroke-opacity="1" stroke-linecap="round" stroke-miterlimit="10" stroke-dasharray=""/><path fill="none" stroke="rgb(200,100,100)" paint-order="fill stroke markers" d=" M 320 0 C 320 -44.182779984 355.817220016 -80 400 -80 C 444.182779984 -80 480 -44.182779984 480 0 C 480 44.182779984 444.182779984 80 400 80 C 355.817220016 80 320 44.182779984 320 0 Z" stroke-opacity="1" stroke-linecap="round" stroke-miterlimit="10" stroke-dasharray=""/><path fill="none" stroke="rgb(200,100,100)" paint-order="fill stroke markers" d=" M 320 80 C 320 35.817220016 355.817220016 0 400 0 C 444.182779984 0 480 35.817220016 480 80 C 480 124.182779984 444.182779984 160 400 160 C 355.817220016 160 320 124.182779984 320 80 Z" stroke-opacity="1" stroke-linecap="round" stroke-miterlimit="10" stroke-dasharray=""/><path fill="none" stroke="rgb(200,100,100)" paint-order="fill stroke markers" d=" M 320 160 C 320 115.817220016 355.817220016 80 400 80 C 444.182779984 80 480 115.817220016 480 160 C 480 204.182779984 444.182779984 240 400 240 C 355.817220016 240 320 204.182779984 320 160 Z" stroke-opacity="1" stroke-linecap="round" stroke-miterlimit="10" stroke-dasharray=""/><path fill="none" stroke="rgb(200,100,100)" paint-order="fill stroke markers" d=" M 320 240 C 320 195.817220016 355.817220016 160 400 160 C 444.182779984 160 480 195.817220016 480 240 C 480 284.182779984 444.182779984 320 400 320 C 355.817220016 320 320 284.182779984 320 240 Z" stroke-opacity="1" stroke-linecap="round" stroke-miterlimit="10" stroke-dasharray=""/><path fill="none" stroke="rgb(200,100,100)" paint-order="fill stroke markers" d=" M 320 320 C 320 275.817220016 355.817220016 240 400 240 C 444.182779984 240 480 275.817220016 480 320 C 480 364.182779984 444.182779984 400 400 400 C 355.817220016 400 320 364.182779984 320 320 Z" stroke-opacity="1" stroke-linecap="round" stroke-miterlimit="10" stroke-dasharray=""/><path fill="none" stroke="rgb(200,100,100)" paint-order="fill stroke markers" d=" M 320 400 C 320 355.817220016 355.817220016 320 400 320 C 444.182779984 320 480 355.817220016 480 400 C 480 444.182779984 444.182779984 480 400 480 C 355.817220016 480 320 444.182779984 320 400 Z" stroke-opacity="1" stroke-linecap="round" stroke-miterlimit="10" stroke-dasharray=""/></g></svg>