<svg version="1.1" xmlns="http://www.w3.org/2000/svg" xmlns:xlink="http://www.w3.org/1999/xlink" width="400" height="400" viewBox="0 0 400 400"><defs/><g><rect fill="rgb(255,255,255)" stroke="none" x="0" y="0" width="400" height="400" transform="matrix(1 0 0 1 0 0)" fill-opacity="1"/><path fill="none" stroke="rgb(200,100,100)" paint-order="fill stroke markers" d=" M 15.5 15.5 L 65.5 15.5 L 65.5 65.5 L 15.5 65.5 L 15.5 15.5 Z" stroke-opacity="1" stroke-linecap="round" stroke-miterlimit="10" stroke-dasharray=""/><path fill="none" stroke="rgb(200,100,100)" paint-order="fill stroke markers" d=" M 95.5 15.5 L 145.5 15.5 L 145.5 65.5 L 95.5 65.5 L 95.5 15.5 Z" stroke-opacity="1" stroke-linecap="round" stroke-miterlimit="10" stroke-dasharray=""/><path fill="none" stroke="rgb(200,100,100)" paint-order="fill stroke markers" d=" M 175.5 15.5 L 225.5 15.5 L 225.5 65.5 L 175.5 65.5 L 175.5 15.5 Z" stroke-opacity="1" stroke-linecap="round" stroke-miterlimit="10" stroke-dasharray=""/><path fill="none" stroke="rgb(200,100,100)" paint-order="fill stroke markers" d=" M 255.5 15.5 L 305.5 15.5 L 305.5 65.5 L 255.5 65.5 L 255.5 15.5 Z" stroke-opacity="1" stroke-linecap="round" stroke-miterlimit="10" stroke-dasharray=""/><path fill="none" stroke="rgb(200,100,100)" paint-order="fill stroke markers" d=" M 335.5 15.5 L 385.5 15.5 L 385.5 65.5 L 335.5 65.5 L 335.5 15.5 Z" stroke-opacity="1" stroke-linecap="round" stroke-miterlimit="10" stroke-dasharray=""/><path fill="none" stroke="rgb(200,100,100)" paint-order="fill stroke markers" d=" M 415.5 15.5 L 465.5 15.5 L 465.5 65.5 L 415.5 65.5 L 415.5 15.5 Z" stroke-opacity="1" stroke-linecap="round" stroke-miterlimit="10" stroke-dasharray=""/><path fill="none" stroke="rgb(200,100,100)" paint-order="fill stroke markers" d=" M 15.5 95.5 L 65.5 95.5 L 65.5 145.5 L 15.5 145.5 L 15.5 95.5 Z" stroke-opacity="1" stroke-linecap="round" stroke-miterlimit="10" stroke-dasharray=""/><path fill="none" stroke="rgb(200,100,100)" paint-order="fill stroke markers" d=" M 95.5 95.5 L 145.5 95.5 L 145.5 145.5 L 95.5 145.5 L 95.5 95.5 Z" stroke-opacity="1" stroke-linecap="round" stroke-miterlimit="10" stroke-dasharray=""/><path fill="none" stroke="rgb(200,100,100)" paint-order="fill stroke markers" d=" M 175.5 95.5 L 225.5 95.5 L 225.5 145.5 L 175.5 145.5 L 175.5 95.5 Z" stroke-opacity="1" stroke-linecap="round" stroke-miterlimit="10" stroke-dasharray=""/><path fill="none" stroke="rgb(200,100,100)" paint-order="fill stroke markers" d=" M 255.5 95.5 L 305.5 95.5 L 305.5 145.5 L 255.5 145.5 L 255.5 95.5 Z" stroke-opacity="1" stroke-linecap="round" stroke-miterlimit="10" stroke-dasharray=""/><path fill="none" stroke="rgb(200,100,100)" paint-order="fill stroke markers" d=" M 335.5 95.5 L 385.5 95.5 L 385.5 145.5 L 335.5 145.5 L 335.5 95.5 Z" stroke-opacity="1" stroke-linecap="round" stroke-miterlimit="10" stroke-dasharray=""/><path fill="none" stroke="rgb(200,100,100)" paint-order="fill stroke markers" d=" M 415.5 95.5 L 465.5 95.5 L 465.5 145.5 L 415.5 145.5 L 415.5 95.5 Z" stroke-opacity="1" stroke-linecap="round" stroke-miterlimit="10" stroke-dasharray=""/><path fill="none" stroke="rgb(200,100,100)" paint-order="fill stroke markers" d=" M 15.5 175.5 L 65.5 175.5 L 65.5 225.5 L 15.5 225.5 L 15.5 175.5 Z" stroke-opacity="1" stroke-linecap="round" stroke-miterlimit="10" stroke-dasharray=""/><path fill="none" stroke="rgb(200,100,100)" paint-order="fill stroke markers" d=" M 95.5 175.5 L 145.5 175.5 L 145.5 225.5 L 95.5 225.5 L 95.5 175.5 Z" stroke-opacity="1" stroke-linecap="round" stroke-miterlimit="10" stroke-dasharray=""/><path fill="none" stroke="rgb(200,100,100)" paint-order="fill stroke markers" d=" M 175.5 175.5 L 225.5 175.5 L 225.5 225.5 L 175.5 225.5 L 175.5 175.5 Z" stroke-opacity="1" stroke-linecap="round" stroke-miterlimit="10" stroke-dasharray=""/><path fill="none" stroke="rgb(200,100,100)" paint-order="fill stroke markers" d=" M 255.5 175.5 L 305.5 175.5 L 305.5 225.5 L 255.5 225.5 L 255.5 175.5 Z" stroke-opacity="1" stroke-linecap="round" stroke-miterlimit="10" stroke-dasharray=""/><path fill="none" stroke="rgb(200,100,100)" paint-order="fill stroke markers" d=" M 335.5 175.5 L 385.5 175.5 L 385.5 225.5 L 335.5 225.5 L 335.5 175.5 Z" stroke-opacity="1" stroke-linecap="round" stroke-miterlimit="10" stroke-dasharray=""/><path fill="none" stroke="rgb(200,100,100)" paint-order="fill stroke markers" d=" M 415.5 175.5 L 465.5 175.5 L 465.5 225.5 L 415.5 225.5 L 415.5 175.5 Z" stroke-opacity="1" stroke-linecap="round" stroke-miterlimit="10" stroke-dasharray=""/><path fill="none" stroke="rgb(200,100,100)" paint-order="fill stroke markers" d=" M 15.5 255.5 L 65.5 255.5 L 65.5 305.5 L 15.5 305.5 L 15.5 255.5 Z" stroke-opacity="1" stroke-linecap="round" stroke-miterlimit="10" stroke-dasharray=""/><path fill="none" stroke="rgb(200,100,100)" paint-order="fill stroke markers" d=" M 95.5 255.5 L 145.5 255.5 L 145.5 305.5 L 95.5 305.5 L 95.5 255.5 Z" stroke-opacity="1" stroke-linecap="round" stroke-miterlimit="10" stroke-dasharray=""/><path fill="none" stroke="rgb(200,100,100)" paint-order="fill stroke markers" d=" M 175.5 255.5 L 225.5 255.5 L 225.5 305.5 L 175.5 305.5 L 175.5 255.5 Z" stroke-opacity="1" stroke-linecap="round" stroke-miterlimit="10" stroke-dasharray=""/><path fill="none" stroke="rgb(200,100,100)" paint-order="fill stroke markers" d=" M 255.5 255.5 L 305.5 255.5 L 305.5 305.5 L 255.5 305.5 L 255.5 255.5 Z" stroke-opacity="1" stroke-linecap="round" stroke-miterlimit="10" stroke-dasharray=""/><path fill="none" stroke="rgb(200,100,100)" paint-order="fill stroke markers" d=" M 335.5 255.5 L 385.5 255.5 L 385.5 305.5 L 335.5 305.5 L 335.5 255.5 Z" stroke-opacity="1" stroke-linecap="round" stroke-miterlimit="10" stroke-dasharray=""/><path fill="none" stroke="rgb(200,100,100)" paint-order="fill stroke markers" d=" M 415.5 255.5 L 465.5 255.5 L 465.5 305.5 L 415.5 305.5 L 415.5 255.5 Z" stroke-opacity="1" stroke-linecap="round" stroke-miterlimit="10" stroke-dasharray=""/><path fill="none" stroke="rgb(200,100,100)" paint-order="fill stroke markers" d=" M 15.5 335.5 L 65.5 335.5 L 65.5 385.5 L 15.5 385.5 L 15.5 335.5 Z" stroke-opacity="1" stroke-linecap="round" stroke-miterlimit="10" stroke-dasharray=""/><path fill="none" stroke="rgb(200,100,100)" paint-order="fill stroke markers" d=" M 95.5 335.5 L 145.5 335.5 L 145.5 385.5 L 95.5 385.5 L 95.5 335.5 Z" stroke-opacity="1" stroke-linecap="round" stroke-miterlimit="10" stroke-dasharray=""/><path fill="none" stroke="rgb(200,100,100)" paint-order="fill stroke markers" d=" M 175.5 335.5 L 225.5 335.5 L 225.5 385.5 L 175.5 385.5 L 175.5 335.5 Z" stroke-opacity="1" stroke-linecap="round" stroke-miterlimit="10" stroke-dasharray=""/><path fill="none" stroke="rgb(200,100,100)" paint-order="fill stroke markers" d=" M 255.5 335.5 L 305.5 335.5 L 305.5 385.5 L 255.5 385.5 L 255.5 335.5 Z" stroke-opacity="1" stroke-linecap="round" stroke-miterlimit="10" stroke-dasharray=""/><path fill="none" stroke="rgb(200,100,100)" paint-order="fill stroke markers" d=" M 335.5 335.5 L 385.5 335.5 L 385.5 385.5 L 335.5 385.5 L 335.5 335.5 Z" stroke-opacity="1" stroke-linecap="round" stroke-miterlimit="10" stroke-dasharray=""/><path fill="none" stroke="rgb(200,100,100)" paint-order="fill stroke markers" d=" M 415.5 335.5 L 465.5 335.5 L 465.5 385.5 L 415.5 385.5 L 415.5 335.5 Z" stroke-opacity="1" stroke-linecap="round" stroke-miterlimit="10" stroke-dasharray=""/><path fill="none" stroke="rgb(200,100,100)" paint-order="fill stroke markers" d=" M 15.5 415.5 L 65.5 415.5 L 65.5 465.5 L 15.5 465.5 L 15.5 415.5 Z" stroke-opacity="1" stroke-linecap="round" stroke-miterlimit="10" stroke-dasharray=""/><path fill="none" stroke="rgb(200,100,100)" paint-order="fill stroke markers" d=" M 95.5 415.5 L 145.5 415.5 L 145.5 465.5 L 95.5 465.5 L 95.5 415.5 Z" stroke-opacity="1" stroke-linecap="round" stroke-miterlimit="10" stroke-dasharray=""/><path fill="none" stroke="rgb(200,100,100)" paint-order="fill stroke markers" d=" M 175.5 415.5 L 225.5 415.5 L 225.5 465.5 L 175.5 465.5 L 175.5 415.5 Z" stroke-opacity="1" stroke-linecap="round" stroke-miterlimit="10" stroke-dasharray=""/><path fill="none" stroke="rgb(200,100,100)" paint-order="fill stroke markers" d=" M 255.5 415.5 L 305.5 415.5 L 305.5 465.5 L 255.5 465.5 L 255.5 415.5 Z" stroke-opacity="1" stroke-linecap="round" stroke-miterlimit="10" stroke-dasharray=""/><path fill="none" stroke="rgb(200,100,100)" paint-order="fill stroke markers" d=" M 335.5 415.5 L 385.5 415.5 L 385.5 465.5 L 335.5 465.5 L 335.5 415.5 Z" stroke-opacity="1" stroke-linecap="round" stroke-miterlimit="10" stroke-dasharray=""/><path fill="none" stroke="rgb(200,100,100)" paint-order="fill stroke markers" d=" M 415.5 415.5 L 465.5 415.5 L 465.5 465.5 L 415.5 465.5 L 415.5 415.5 Z" stroke-opacity="1" stroke-linecap="round" stroke-miterlimit="10" stroke-dasharray=""/></g></svg>