<?xml version="1.0" encoding="utf-8"?>
<!-- Generator: Adobe Illustrator 25.4.1, SVG Export Plug-In . SVG Version: 6.00 Build 0)  -->
<svg version="1.1" id="Draw" xmlns="http://www.w3.org/2000/svg" xmlns:xlink="http://www.w3.org/1999/xlink" x="0px" y="0px"
	 viewBox="0 0 792 612" style="enable-background:new 0 0 792 612;" xml:space="preserve">
<style type="text/css">
	.st0{fill:none;stroke:#000000;stroke-miterlimit:10;}
	.st1{enable-background:new    ;}
	.st2{fill:#FFFFFF;}
	.st3{fill:none;stroke:#000000;}
	.st4{fill:none;}
</style>
<polygon class="st0" points="367.1,422 276.8,422 240.8,387.7 240.8,246.4 287.4,189.5 367.1,189.5 "/>
<polygon class="st0" points="551.4,388.1 515.3,422.2 425,422.2 425,189.8 504.7,189.8 551.4,246.7 "/>
<g class="st1">
	<path class="st0" d="M209,369.7h22.8v5.2l-10.4,3.1h10.4v5H209v-5l10.3-3.3H209V369.7z"/>
	<path class="st0" d="M209,361.6h3v5.9h-3V361.6z M213.1,361.6h18.7v5.9h-18.7V361.6z"/>
	<path class="st0" d="M219.1,348v5h-1c-0.9,0-1.4,0-1.6,0.1c-0.2,0.1-0.3,0.3-0.3,0.7c0,0.3,0.1,0.6,0.3,0.7
		c0.2,0.2,0.5,0.2,0.9,0.2c0.6,0,1,0,1.3-0.1c0.3-0.1,0.6-0.3,0.9-0.7c0.3-0.4,0.8-1.2,1.4-2.5c0.8-1.7,1.6-2.7,2.3-3.3
		c0.7-0.5,1.7-0.8,3.1-0.8c1.5,0,2.7,0.2,3.4,0.6c0.8,0.4,1.4,1.1,1.8,2c0.4,0.9,0.6,2,0.6,3.3c0,1.4-0.2,2.7-0.7,3.7
		s-1.1,1.7-1.8,2.1c-0.8,0.4-1.9,0.6-3.5,0.6h-0.9v-5h1.2c1,0,1.7-0.1,2-0.2c0.3-0.1,0.5-0.4,0.5-0.8c0-0.4-0.1-0.7-0.3-0.8
		c-0.2-0.2-0.6-0.2-1.3-0.2c-0.9,0-1.4,0.1-1.7,0.3c-0.2,0.2-0.9,1.3-2,3.3c-0.9,1.7-1.8,2.7-2.6,3.1c-0.8,0.4-1.7,0.5-2.7,0.5
		c-1.5,0-2.6-0.2-3.3-0.6c-0.7-0.4-1.3-1.1-1.6-2c-0.4-0.9-0.6-2-0.6-3.3c0-1.2,0.2-2.3,0.5-3.2c0.3-0.9,0.7-1.5,1.2-2
		c0.5-0.5,1-0.7,1.4-0.8c0.4-0.1,1.1-0.1,2.1-0.1H219.1z"/>
	<path class="st0" d="M219.1,334.4v5h-1c-0.9,0-1.4,0-1.6,0.1c-0.2,0.1-0.3,0.3-0.3,0.7c0,0.3,0.1,0.6,0.3,0.7s0.5,0.2,0.9,0.2
		c0.6,0,1,0,1.3-0.1c0.3-0.1,0.6-0.3,0.9-0.7c0.3-0.4,0.8-1.2,1.4-2.5c0.8-1.7,1.6-2.7,2.3-3.2s1.7-0.8,3.1-0.8
		c1.5,0,2.7,0.2,3.4,0.6c0.8,0.4,1.4,1.1,1.8,2c0.4,0.9,0.6,2,0.6,3.3c0,1.4-0.2,2.7-0.7,3.7c-0.5,1-1.1,1.7-1.8,2.1
		c-0.8,0.4-1.9,0.6-3.5,0.6h-0.9v-5h1.2c1,0,1.7-0.1,2-0.2s0.5-0.4,0.5-0.8c0-0.4-0.1-0.7-0.3-0.8c-0.2-0.2-0.6-0.2-1.3-0.2
		c-0.9,0-1.4,0.1-1.7,0.3c-0.2,0.2-0.9,1.3-2,3.3c-0.9,1.7-1.8,2.7-2.6,3.1c-0.8,0.4-1.7,0.5-2.7,0.5c-1.5,0-2.6-0.2-3.3-0.6
		s-1.3-1.1-1.6-2c-0.4-0.9-0.6-2-0.6-3.3c0-1.2,0.2-2.3,0.5-3.2c0.3-0.9,0.7-1.5,1.2-2c0.5-0.5,1-0.7,1.4-0.8
		c0.4-0.1,1.1-0.1,2.1-0.1H219.1z"/>
	<path class="st0" d="M220.3,327.4v5.3h-1.3c-1.4,0-2.6-0.2-3.3-0.5s-1.5-1-2.1-2s-0.9-2.3-0.9-3.9c0-1.9,0.3-3.4,1-4.3
		c0.7-1,1.5-1.6,2.5-1.8c1-0.2,3-0.3,6.1-0.3h9.4v5.5h-1.7c0.7,0.3,1.2,0.8,1.5,1.3c0.3,0.5,0.5,1.2,0.5,2c0,1-0.3,1.9-0.8,2.7
		c-0.6,0.8-1.8,1.2-3.7,1.2h-1.5c-1.4,0-2.3-0.2-2.9-0.7c-0.5-0.4-1.1-1.5-1.8-3.3c-0.7-1.9-1.2-2.9-1.5-3c-0.3-0.1-0.8-0.2-1.5-0.2
		c-1,0-1.6,0.1-1.9,0.2c-0.3,0.1-0.4,0.4-0.4,0.7c0,0.4,0.1,0.6,0.4,0.7c0.2,0.1,0.9,0.1,1.9,0.1H220.3z M222.9,325.6
		c0.7,0.9,1.2,1.4,1.7,1.6s1.1,0.2,1.9,0.2c1,0,1.6-0.1,1.9-0.2c0.3-0.1,0.4-0.4,0.4-0.8c0-0.4-0.1-0.6-0.3-0.7
		c-0.2-0.1-0.8-0.2-1.7-0.2H222.9z"/>
	<path class="st0" d="M213.1,312.1l1.7,0.1c-0.7-0.4-1.2-0.9-1.5-1.5c-0.3-0.6-0.5-1.3-0.5-2.1c0-1,0.2-1.8,0.7-2.4
		c0.5-0.6,1-1,1.7-1.2c0.7-0.2,1.9-0.3,3.5-0.3h13.1v5.7h-12.9c-1.3,0-2.1,0-2.3,0.1c-0.3,0.1-0.4,0.3-0.4,0.7
		c0,0.4,0.2,0.7,0.5,0.8c0.3,0.1,1.2,0.2,2.6,0.2h12.6v5.7h-18.7V312.1z"/>
	<path class="st0" d="M218.9,283.8v5.9h-4c-1.2,0-1.9,0.1-2.2,0.2c-0.3,0.1-0.4,0.4-0.4,0.8c0,0.5,0.2,0.8,0.5,0.9
		c0.3,0.1,1.1,0.2,2.3,0.2h10.6c1.1,0,1.8-0.1,2.2-0.2c0.3-0.1,0.5-0.4,0.5-0.9c0-0.4-0.2-0.7-0.5-0.9c-0.3-0.1-1.1-0.2-2.4-0.2
		h-2.9v-5.9h0.9c2.4,0,4,0.2,5,0.5s1.9,1.1,2.6,2.2s1.1,2.5,1.1,4.2c0,1.7-0.3,3.2-0.9,4.3c-0.6,1.1-1.5,1.9-2.6,2.2s-2.8,0.5-5,0.5
		H217c-1.6,0-2.9-0.1-3.7-0.2c-0.8-0.1-1.6-0.4-2.4-1c-0.8-0.6-1.4-1.3-1.8-2.3c-0.4-1-0.7-2.1-0.7-3.4c0-1.7,0.3-3.2,1-4.3
		c0.7-1.1,1.5-1.9,2.5-2.2s2.6-0.5,4.7-0.5H218.9z"/>
	<path class="st0" d="M213.1,268.8h18.7v5.8l-1.6-0.1c0.6,0.4,1.1,0.9,1.4,1.5c0.3,0.6,0.5,1.2,0.5,2c0,0.9-0.2,1.6-0.5,2.1
		c-0.3,0.6-0.7,1-1.2,1.2s-1,0.4-1.6,0.5c-0.5,0.1-1.6,0.1-3.2,0.1h-12.6v-5.7h12.7c1.5,0,2.3,0,2.6-0.1c0.3-0.1,0.4-0.3,0.4-0.7
		c0-0.4-0.1-0.7-0.4-0.8c-0.3-0.1-1.2-0.1-2.7-0.1h-12.6V268.8z"/>
	<path class="st0" d="M209,261.1h5.4c-0.5-0.5-1-1-1.2-1.6c-0.3-0.6-0.4-1.2-0.4-1.9c0-0.8,0.1-1.5,0.4-2c0.2-0.6,0.6-1,1-1.3
		c0.4-0.3,0.9-0.5,1.3-0.5c0.4-0.1,1.3-0.1,2.7-0.1h8.4c1.4,0,2.4,0.1,3.1,0.3c0.7,0.2,1.3,0.6,1.7,1.3c0.5,0.7,0.7,1.5,0.7,2.4
		c0,0.7-0.1,1.3-0.4,1.9c-0.3,0.6-0.7,1.1-1.3,1.6l1.4,0.4v5.3H209V261.1z M218.4,259.3c-1,0-1.6,0.1-1.9,0.2
		c-0.3,0.1-0.4,0.4-0.4,0.7c0,0.3,0.1,0.6,0.4,0.7s0.9,0.2,1.9,0.2h8c1,0,1.6-0.1,1.9-0.2c0.3-0.1,0.4-0.3,0.4-0.7
		c0-0.4-0.1-0.6-0.4-0.7c-0.3-0.1-1-0.2-2.1-0.2H218.4z"/>
	<path class="st0" d="M222.8,238.9v7.4h4c0.8,0,1.4-0.1,1.6-0.2c0.2-0.1,0.4-0.4,0.4-0.7c0-0.4-0.2-0.7-0.5-0.9
		c-0.3-0.1-1-0.2-1.9-0.2H224v-5.4h1.4c1.2,0,2,0.1,2.7,0.2s1.3,0.5,2,1c0.7,0.5,1.2,1.2,1.6,2c0.4,0.8,0.5,1.9,0.5,3.1
		c0,1.2-0.2,2.3-0.5,3.2c-0.3,0.9-0.8,1.6-1.4,2.1c-0.6,0.5-1.3,0.9-2,1.1c-0.7,0.2-1.8,0.3-3.2,0.3h-5.4c-1.6,0-2.9-0.2-3.9-0.7
		c-0.9-0.4-1.7-1.2-2.2-2.2c-0.5-1-0.8-2.2-0.8-3.5c0-1.6,0.3-2.9,0.9-3.9c0.6-1,1.4-1.8,2.4-2.2c1-0.4,2.4-0.6,4.2-0.6H222.8z
		 M219.7,244.6h-1.4c-1,0-1.6,0.1-1.9,0.2c-0.3,0.1-0.4,0.3-0.4,0.6c0,0.4,0.1,0.6,0.4,0.7s0.9,0.1,1.9,0.1h1.4V244.6z"/>
</g>
<g class="st1">
	<path class="st0" d="M189.5,411.8h3.1v2.4h12.3v4h-12.3v2.4h-3.1V411.8z"/>
	<path class="st0" d="M189.5,407.2h3.5c-0.3-0.3-0.5-0.7-0.7-1.1c-0.2-0.4-0.2-0.8-0.2-1.2c0-0.7,0.2-1.2,0.5-1.7
		c0.3-0.5,0.7-0.8,1.2-0.9c0.4-0.1,1.3-0.2,2.4-0.2h8.7v3.8H196c-0.7,0-1.2,0-1.4,0.1c-0.2,0.1-0.3,0.2-0.3,0.5
		c0,0.2,0.1,0.4,0.3,0.5c0.2,0.1,0.6,0.1,1.3,0.1h9v3.8h-15.4V407.2z"/>
	<path class="st0" d="M198.8,392.2v5h2.7c0.6,0,0.9,0,1.1-0.1c0.2-0.1,0.2-0.2,0.2-0.5c0-0.3-0.1-0.5-0.3-0.6
		c-0.2-0.1-0.6-0.1-1.3-0.1h-1.7v-3.6h0.9c0.8,0,1.4,0,1.8,0.1c0.4,0.1,0.9,0.3,1.3,0.7s0.8,0.8,1.1,1.4s0.4,1.2,0.4,2.1
		c0,0.8-0.1,1.5-0.4,2.1c-0.2,0.6-0.6,1.1-1,1.4s-0.9,0.6-1.3,0.7c-0.5,0.1-1.2,0.2-2.1,0.2h-3.7c-1.1,0-2-0.1-2.6-0.4
		c-0.6-0.3-1.1-0.8-1.5-1.5c-0.3-0.7-0.5-1.5-0.5-2.3c0-1.1,0.2-2,0.6-2.7c0.4-0.7,0.9-1.2,1.6-1.5c0.7-0.3,1.6-0.4,2.8-0.4H198.8z
		 M196.8,396h-0.9c-0.7,0-1.1,0-1.3,0.1c-0.2,0.1-0.3,0.2-0.3,0.4c0,0.3,0.1,0.4,0.2,0.5c0.2,0.1,0.6,0.1,1.3,0.1h0.9V396z"/>
</g>
<g class="st1">
	<path class="st0" d="M244.8,219h2.6v8.4l-2.2,0c-4.1-2.5-6.6-4-7.6-4.5c-1-0.5-1.7-0.7-2.3-0.7c-0.4,0-0.7,0.1-0.9,0.2
		c-0.2,0.1-0.3,0.4-0.3,0.7c0,0.3,0.1,0.5,0.3,0.7c0.2,0.1,0.7,0.2,1.4,0.2h1.5v3.4h-0.6c-0.9,0-1.5,0-2-0.1c-0.5-0.1-1-0.3-1.5-0.7
		c-0.5-0.3-0.8-0.8-1.1-1.4c-0.2-0.6-0.4-1.2-0.4-2c0-1.5,0.4-2.7,1.1-3.5s1.7-1.2,2.9-1.2c0.9,0,1.8,0.2,2.8,0.7
		c1,0.4,3.1,1.7,6.2,3.9V219z"/>
	<path class="st0" d="M237.2,208.4h5.1c1.2,0,2,0.1,2.5,0.2c0.5,0.1,1,0.4,1.5,0.8c0.5,0.4,0.8,0.9,1,1.4c0.2,0.6,0.3,1.2,0.3,1.9
		c0,0.9-0.1,1.7-0.3,2.3s-0.5,1.1-1,1.5s-0.9,0.6-1.4,0.8c-0.5,0.2-1.3,0.2-2.4,0.2h-5.4c-1.4,0-2.5-0.1-3.2-0.4
		c-0.7-0.2-1.3-0.7-1.7-1.5s-0.6-1.6-0.6-2.6c0-0.8,0.1-1.6,0.4-2.3c0.3-0.7,0.7-1.2,1.1-1.5s0.9-0.6,1.4-0.7
		C235.2,208.5,236.1,208.4,237.2,208.4z M235.9,212.3c-0.8,0-1.3,0-1.5,0.1c-0.2,0.1-0.3,0.3-0.3,0.6c0,0.3,0.1,0.5,0.3,0.6
		s0.7,0.1,1.5,0.1h7.5c0.9,0,1.4,0,1.6-0.1c0.2-0.1,0.3-0.3,0.3-0.6c0-0.3-0.1-0.5-0.3-0.6c-0.2-0.1-0.7-0.1-1.5-0.1H235.9z"/>
	<path class="st0" d="M232,201.1h15.4v3.8h-8.2c-1.2,0-1.9,0-2.1,0.1c-0.2,0.1-0.4,0.2-0.5,0.5c-0.1,0.3-0.2,0.8-0.2,1.7v0.4h-1.8
		c-0.4-1.9-1.2-3.3-2.5-4.2V201.1z"/>
	<path class="st0" d="M237.2,190.6h5.1c1.2,0,2,0.1,2.5,0.2c0.5,0.1,1,0.4,1.5,0.8s0.8,0.9,1,1.4c0.2,0.6,0.3,1.2,0.3,1.9
		c0,0.9-0.1,1.7-0.3,2.3s-0.5,1.1-1,1.5c-0.4,0.4-0.9,0.6-1.4,0.8c-0.5,0.2-1.3,0.2-2.4,0.2h-5.4c-1.4,0-2.5-0.1-3.2-0.4
		c-0.7-0.2-1.3-0.7-1.7-1.5s-0.6-1.6-0.6-2.6c0-0.8,0.1-1.6,0.4-2.3c0.3-0.7,0.7-1.2,1.1-1.5s0.9-0.6,1.4-0.7
		C235.2,190.7,236.1,190.6,237.2,190.6z M235.9,194.4c-0.8,0-1.3,0-1.5,0.1c-0.2,0.1-0.3,0.3-0.3,0.6c0,0.3,0.1,0.5,0.3,0.6
		s0.7,0.1,1.5,0.1h7.5c0.9,0,1.4,0,1.6-0.1c0.2-0.1,0.3-0.3,0.3-0.6c0-0.3-0.1-0.5-0.3-0.6c-0.2-0.1-0.7-0.1-1.5-0.1H235.9z"/>
</g>
<g>
	<path class="st0" d="M160.8,243.2c0.2,0,0.3-0.1,0.4-0.1c1.4,0,1.4,0,1.5,1.3c0.2,1.8,0.4,3.7,0.7,5.5c0.3,2.3,1.5,4,3.7,5
		c6.8,3.1,12.9,7.3,18,12.9c9.7,10.7,14.9,23.3,15,37.8c0.1,13.9-4.5,26.1-13.3,36.7c-5.3,6.3-11.7,11.1-19.2,14.5
		c-2.7,1.2-4,3.2-4.2,6.1c-0.2,1.9-0.4,3.9-0.7,5.8c-0.6,0-1.1,0-1.7,0c0-0.3,0-0.6,0-0.8c0-4.5,0-8.9,0-13.4c0-0.6,0.2-0.9,0.8-1.1
		c16.9-6.5,27.8-18.5,31.8-36.1c4.2-18.6-1-34.7-14.5-48.1c-4.9-4.8-10.7-8.2-17.1-10.5c-0.6-0.2-0.9-0.5-0.9-1.2
		c0-4.5,0-8.9,0-13.4C160.7,243.8,160.8,243.5,160.8,243.2z"/>
	<path class="st0" d="M127.9,368.7c-0.6,0-1.1,0-1.7,0c-0.2-1.6-0.4-3.1-0.5-4.6c-0.1-0.5-0.1-1.1-0.2-1.6c-0.2-2.7-1.5-4.5-4-5.6
		c-6.5-3-12.3-7-17.2-12.2c-8.3-8.7-13.4-18.9-15-30.7c-2.3-16.7,2.1-31.6,13-44.5c5-6,11.2-10.6,18.3-14c0.5-0.2,0.9-0.5,1.4-0.7
		c2-0.9,3.1-2.5,3.4-4.7c0.2-1.9,0.5-3.8,0.7-5.7c0-0.4,0.1-0.8,0.2-1.2c0.6,0,1.1,0,1.8,0c0,0.3,0,0.6,0,1c0,4.4,0,8.7,0,13.1
		c0,0.9-0.3,1.2-1.1,1.5c-16.8,6.5-27.5,18.6-31.5,36c-3.8,16.7,0.2,31.8,11.4,44.8c5.5,6.4,12.4,10.9,20.4,13.8
		c0.5,0.2,0.8,0.3,0.8,0.9c0,4.7,0,9.3,0,14C127.9,368.4,127.9,368.6,127.9,368.7z"/>
	<path class="st0" d="M139.7,291.3c0,1.1,0,2.1,0,3.2c0,3.3,0,6.6,0,9.9c0,0.3,0,0.6,0,0.9c0.1,0.7,0.6,1.2,1.4,1.2
		c0.8,0,1.3-0.4,1.4-1.2c0.1-0.4,0.1-0.7,0.1-1.1c0-3.1,0-6.2,0-9.3c0-2.8,1.9-4.6,4.6-4.7c2.7,0,4.8,1.8,4.8,4.5
		c0.1,4.9,0,9.7,0,14.7c-1,0-2,0-3.1,0c0-0.3,0-0.6,0-0.9c0-4.2,0-8.4,0-12.6c0-0.3,0-0.7-0.1-1c-0.2-0.8-0.7-1.2-1.5-1.2
		s-1.3,0.4-1.5,1.2c-0.1,0.4-0.1,0.8-0.1,1.2c0,3.1,0,6.2,0,9.3c-0.1,3.2-2.8,5.2-5.9,4.3c-1.9-0.5-3.1-2.1-3.2-4.3
		c-0.1-3.3,0-6.6,0-9.9c0-1.4,0-2.7,0-4.2C137.6,291.3,138.6,291.3,139.7,291.3z"/>
	<path class="st0" d="M136.6,317c1.1,0,2,0,3.1,0c0,0.3,0,0.6,0,1c0,4.2,0,8.3,0,12.5c0,0.5,0.4,1.2,0.8,1.5
		c0.3,0.2,1.1,0.2,1.4-0.1c0.4-0.3,0.6-1,0.6-1.5c0.1-1.7,0-3.3,0-5s0-3.3,0-5c0-2.4,1.7-4.2,4.2-4.4c2.7-0.2,4.8,1.3,5.2,3.7
		c0.1,0.4,0.1,0.8,0.1,1.2c0,4.5,0,9.1,0,13.6c0,0.2,0,0.4,0,0.7c-1,0-2,0-3.1,0c0-0.4,0-0.7,0-1.1c0-4.1,0-8.2,0-12.3
		c0-1.6-0.5-2.3-1.6-2.3s-1.6,0.7-1.6,2.3c0,3.2,0,6.3,0,9.5c-0.1,3.5-3.7,5.6-6.7,3.9c-1.5-0.8-2.3-2.2-2.3-3.9
		C136.6,326.6,136.6,321.8,136.6,317z"/>
	<path class="st0" d="M152.1,353.5c0,1.4,0,2.7,0,4c0,0.3-0.3,0.6-0.5,0.8c-3.4,3.4-6.8,6.7-10.2,10.1c-0.2,0.2-0.5,0.5-0.8,0.8
		c3.9,0,7.6,0,11.4,0c0,1.2,0,2.2,0,3.4c-5.1,0-10.1,0-15.4,0c0-1.4,0-2.8,0-4.2c0-0.2,0.3-0.5,0.5-0.7c3.4-3.4,6.8-6.7,10.2-10.1
		c0.2-0.2,0.4-0.3,0.6-0.5c0-0.1-0.1-0.2-0.1-0.2c-3.7,0-7.5,0-11.2,0c0-1.2,0-2.3,0-3.4C141.8,353.5,146.9,353.5,152.1,353.5z"/>
	<path class="st0" d="M152.1,239.4c0,1.4,0,2.6,0,3.8c0,0.3-0.2,0.7-0.5,0.9c-3.4,3.4-6.8,6.8-10.2,10.2c-0.2,0.2-0.5,0.4-0.8,0.6
		c0,0.1,0.1,0.2,0.1,0.2c3.7,0,7.5,0,11.3,0c0,1.2,0,2.3,0,3.4c-5.1,0-10.2,0-15.4,0c0-1.4,0-2.8,0-4.2c0-0.2,0.3-0.5,0.5-0.7
		c3.4-3.4,6.9-6.8,10.3-10.2c0.2-0.2,0.4-0.3,0.6-0.5c0-0.1-0.1-0.1-0.1-0.2c-3.7,0-7.5,0-11.3,0c0-1.2,0-2.3,0-3.4
		C141.8,239.4,146.9,239.4,152.1,239.4z"/>
	<path class="st0" d="M152.1,286.2c-1.6-1-3-1.9-4.5-2.8c-3.4-2.1-6.8-4.3-10.3-6.4c-0.5-0.3-0.7-0.7-0.8-1.3
		c-0.3-2.2,0.5-3.4,2.4-4.4c4.3-2.4,8.4-5.2,12.5-7.8c0.1-0.1,0.3-0.1,0.5-0.3c0,1.4,0,2.6,0,3.9c0,0.2-0.3,0.5-0.6,0.6
		c-1.9,0.7-2.3,2.1-2.2,4c0.2,2.6,0.1,5.3,0,7.9c0,0.6,0.1,1,0.6,1.2c1.8,0.7,2.5,2,2.1,3.9C152,285,152.1,285.5,152.1,286.2z
		 M146.3,278.5c0-2.6,0-5.1,0-7.7c-2.1,1.3-4.1,2.5-6.2,3.9C142.3,276,144.2,277.2,146.3,278.5z"/>
	<path class="st0" d="M136.6,345.7c0-1.1,0-2.2,0-3.3c5.1,0,10.2,0,15.3,0c0,1.1,0,2.2,0,3.3C146.9,345.7,141.8,345.7,136.6,345.7z"
		/>
	<path class="st2" d="M146.3,278.5c-2.1-1.3-4.1-2.5-6.2-3.9c2.1-1.3,4.1-2.6,6.2-3.9C146.3,273.4,146.3,275.9,146.3,278.5z"/>
</g>
<g>
	<path class="st0" d="M611.8,384.3c-0.2,0-0.3,0.1-0.5,0.1c-1.7,0.1-1.7,0.1-1.9-1.6c-0.3-2.3-0.6-4.6-0.8-6.9
		c-0.4-2.9-1.9-5-4.6-6.2c-8.5-3.9-16.1-9.1-22.4-16.1c-12.1-13.3-18.5-29-18.6-47.1c-0.1-17.3,5.6-32.5,16.6-45.7
		c6.6-7.9,14.6-13.9,23.9-18.1c3.4-1.5,4.9-4,5.2-7.6c0.2-2.4,0.5-4.8,0.8-7.3c0.8,0,1.4,0,2.2,0c0,0.4,0.1,0.7,0.1,1
		c0,5.6,0,11.2,0,16.7c0,0.8-0.2,1.1-1,1.4c-21.1,8.1-34.7,23.1-39.7,45.1c-5.2,23.1,1.2,43.3,18.1,60c6.1,6,13.3,10.2,21.4,13.1
		c0.8,0.3,1.1,0.6,1.1,1.5c0,5.6,0,11.2,0,16.7C611.9,383.6,611.9,383.9,611.8,384.3z"/>
	<path class="st0" d="M652.9,227.8c0.7,0,1.4,0,2.2,0c0.2,1.9,0.5,3.8,0.7,5.8c0.1,0.7,0.2,1.4,0.2,2c0.3,3.3,1.9,5.6,5,7
		c8.1,3.7,15.3,8.7,21.5,15.2c10.2,10.8,16.5,23.5,18.6,38.3c2.8,20.9-2.7,39.4-16.2,55.5c-6.3,7.5-14,13.2-22.8,17.4
		c-0.6,0.3-1.2,0.6-1.7,0.8c-2.5,1.2-3.8,3.1-4.2,5.8c-0.3,2.4-0.6,4.7-0.9,7.1c-0.1,0.5-0.1,1-0.2,1.5c-0.7,0-1.4,0-2.2,0
		c0-0.4,0-0.8,0-1.2c0-5.4,0-10.9,0-16.3c0-1.1,0.4-1.5,1.3-1.8c20.9-8.2,34.3-23.1,39.3-44.9c4.8-20.9-0.3-39.7-14.2-55.9
		c-6.9-8-15.5-13.6-25.4-17.2c-0.6-0.2-1-0.3-1-1.1c0-5.8,0-11.6,0-17.4C652.8,228.2,652.8,228,652.9,227.8z"/>
	<path class="st0" d="M638.1,324.4c0-1.4,0-2.7,0-3.9c0-4.1,0-8.2,0-12.3c0-0.4,0-0.8,0-1.1c-0.2-0.9-0.8-1.5-1.7-1.5
		c-1,0-1.6,0.5-1.7,1.5c-0.1,0.4-0.1,0.9-0.1,1.4c0,3.9,0,7.7,0,11.6c0,3.5-2.3,5.8-5.8,5.8c-3.4,0.1-5.9-2.3-6-5.7
		c-0.1-6.1,0-12.1,0-18.3c1.3,0,2.5,0,3.9,0c0,0.4,0.1,0.8,0.1,1.2c0,5.2,0,10.5,0,15.7c0,0.4,0,0.8,0.1,1.2c0.2,1,0.9,1.5,1.9,1.5
		s1.7-0.5,1.8-1.5c0.1-0.5,0.1-1,0.1-1.5c0-3.9,0-7.7,0-11.6c0.1-4,3.5-6.5,7.4-5.4c2.3,0.7,3.9,2.6,3.9,5.4c0.1,4.1,0,8.3,0,12.4
		c0,1.7,0,3.4,0,5.2C640.7,324.4,639.5,324.4,638.1,324.4z"/>
	<path class="st0" d="M642,292.3c-1.3,0-2.5,0-3.9,0c0-0.4,0-0.8,0-1.2c0-5.2,0-10.4,0-15.6c0-0.6-0.5-1.5-1-1.8
		c-0.4-0.3-1.4-0.2-1.7,0.1c-0.5,0.4-0.8,1.2-0.8,1.9c-0.1,2.1,0,4.2,0,6.3c0,2.1,0,4.2,0,6.3c0,3-2.2,5.2-5.2,5.5
		c-3.3,0.3-5.9-1.6-6.4-4.6c-0.1-0.5-0.1-1-0.1-1.5c0-5.7,0-11.3,0-17c0-0.3,0-0.5,0-0.9c1.3,0,2.5,0,3.9,0c0,0.5,0,0.9,0,1.3
		c0,5.1,0,10.2,0,15.4c0,2,0.6,2.9,2,2.9s2-0.9,2-2.8c0-3.9-0.1-7.9,0-11.8c0.1-4.4,4.6-6.9,8.4-4.9c1.9,1,2.9,2.7,2.9,4.8
		C642,280.4,642,286.3,642,292.3z"/>
	<path class="st0" d="M622.7,246.8c0-1.7,0-3.4,0-5c0-0.3,0.4-0.7,0.7-1c4.2-4.2,8.4-8.4,12.7-12.6c0.3-0.3,0.6-0.6,1-1
		c-4.8,0-9.5,0-14.3,0c0-1.5,0-2.8,0-4.2c6.3,0,12.7,0,19.2,0c0,1.7,0,3.5,0,5.3c0,0.3-0.4,0.6-0.7,0.9c-4.2,4.2-8.4,8.4-12.7,12.6
		c-0.2,0.2-0.5,0.4-0.8,0.6c0,0.1,0.1,0.2,0.1,0.3c4.6,0,9.3,0,14,0c0,1.5,0,2.9,0,4.3C635.5,246.8,629.2,246.8,622.7,246.8z"/>
	<path class="st0" d="M622.7,389.1c0-1.7,0-3.2,0-4.8c0-0.4,0.3-0.8,0.6-1.1c4.2-4.2,8.5-8.5,12.7-12.7c0.3-0.3,0.6-0.5,1-0.8
		c-0.1-0.1-0.1-0.2-0.2-0.3c-4.7,0-9.3,0-14.1,0c0-1.5,0-2.8,0-4.2c6.3,0,12.7,0,19.2,0c0,1.7,0,3.5,0,5.2c0,0.3-0.4,0.6-0.6,0.9
		c-4.3,4.3-8.6,8.5-12.8,12.7c-0.2,0.2-0.5,0.4-0.7,0.6c0,0.1,0.1,0.2,0.1,0.3c4.7,0,9.3,0,14,0c0,1.5,0,2.8,0,4.2
		C635.5,389.1,629.2,389.1,622.7,389.1z"/>
	<path class="st0" d="M622.7,330.7c2,1.2,3.8,2.4,5.6,3.5c4.3,2.7,8.5,5.4,12.8,8c0.6,0.4,0.8,0.9,0.9,1.6c0.4,2.7-0.7,4.2-3,5.5
		c-5.3,3-10.4,6.4-15.6,9.7c-0.2,0.1-0.3,0.2-0.7,0.4c0-1.7,0-3.3,0-4.8c0-0.3,0.4-0.6,0.7-0.8c2.4-0.9,2.9-2.6,2.7-5
		c-0.2-3.3-0.1-6.6,0-9.9c0-0.7-0.2-1.2-0.8-1.4c-2.3-0.8-3.1-2.5-2.7-4.8C622.8,332.1,622.7,331.6,622.7,330.7z M629.8,340.3
		c0,3.3,0,6.4,0,9.6c2.6-1.6,5.1-3.2,7.7-4.8C634.9,343.4,632.5,341.9,629.8,340.3z"/>
	<path class="st0" d="M641.9,256.4c0,1.4,0,2.7,0,4.1c-6.4,0-12.7,0-19.1,0c0-1.4,0-2.7,0-4.1C629.2,256.4,635.5,256.4,641.9,256.4z
		"/>
	<path class="st2" d="M629.8,340.3c2.6,1.6,5.1,3.2,7.7,4.8c-2.6,1.6-5.1,3.2-7.7,4.8C629.8,346.6,629.8,343.5,629.8,340.3z"/>
</g>
<g>
	<path class="st3" d="M410.5,263.2l-0.4,0.4l-0.1,0.7l0.3,0.8l0.4,0.7l0.5,0.6l0.7,0.3l0.5,0.2h0.6l0.5-0.3l0.2-0.3l0.2-0.6v0.5
		l0.4,0.9l0.5,0.6l0.7,0.5l0.7,0.1l0.6-0.3l0.4-0.6v-0.9l-0.1-0.9l-0.3-1.1l-0.5-1l-0.4-0.7l-0.7-0.8l-0.9-0.8l-0.8-0.6l-1-0.4
		l-0.8-0.3L411,260l-0.6,0l-0.3,0.5l-0.1,0.6l0.3,0.9l1.1,1.1l1.3,0.8l1.8,1l1.2,0.8l0.7,0.5l0.4,0.6l0.2,0.6"/>
	<path class="st3" d="M415.3,270.4l-3.2-1.7l-0.9-0.3l-0.6,0l-0.3,0.2l-0.2,0.4l0.2,0.7l0.4,0.7l0.9,0.9l1.3,1.1l0.7,0.5l1.8,1
		l-4.5-2.5l-1.3-0.7l-0.9-0.6l-0.5-0.6l-0.3-0.6l-0.1-0.7l0.1-0.6l0.4-0.4l0.5,0l0.2,0.2l-0.2,0.3l-0.2-0.1"/>
	<path class="st3" d="M415.3,279.1l0.8,0.6l0.8,0.7l0.4,0.8v0.4L417,282l-0.7-0.1l-0.8-0.3l-5.3-2.9l5.1,2.9l0.8,0.7l0.7,0.6
		l0.4,0.5l0.1,0.6l-0.1,0.5l-0.4,0.3l-0.5,0.1l-0.8-0.3l-5.4-2.9l4.9,2.7l0.7,0.7l0.7,0.6l0.4,0.4l0.3,0.5l0.1,0.6l-0.1,0.5
		l-0.3,0.3l-0.7,0.1l-1.1-0.5l-2.7-1.6l-1.2-0.5l-0.5-0.1l-0.4,0.1l-0.3,0.4l0,0.5l0.3,0.7l0.6,0.7l0.9,0.8l0.9,0.7"/>
	<path class="st3" d="M413.5,293l0.8,0.3h0.8l0.4-0.4l0-1l-0.8-1.2l-0.8-0.8l-1-0.5l-0.7-0.4l-1-0.2l-0.5,0.1l-0.4,0.5l0.3,0.9
		l0.9,1.1l1.1,1l1.5,1l1.4,0.8l-3.4-1.9l-0.8-0.2l-0.5,0.1l-0.4,0.4l0.1,0.7l0.5,0.9l1.1,1l0.9,0.7"/>
	<path class="st3" d="M413.7,299.5l0.8,0.1l0.7-0.1l0.3-0.4l-0.1-0.8l-0.6-1l-0.8-0.8l-0.8-0.6l-0.9-0.5l-0.9-0.3l-0.8-0.1l-0.5,0.2
		l-0.2,0.5l0.4,0.9l0.8,1l1,0.8l1.9,1.3l3.6,2l-5.2-2.8l-0.7-0.3l-0.4-0.2l-0.6,0l-0.5,0.2l-0.2,0.5l0.1,0.7l0.6,0.9l0.8,0.8l1,0.8"
		/>
	<path class="st3" d="M413.7,306l0.8,0.1l0.7-0.1l0.3-0.4l-0.1-0.8l-0.6-1l-0.8-0.8l-0.8-0.6l-0.9-0.5l-0.9-0.3l-0.8-0.1l-0.5,0.2
		l-0.2,0.5l0.4,0.9l0.8,1l1,0.8l1.9,1.3l3.6,2l-5.2-2.8l-0.7-0.3l-0.4-0.2l-0.6,0l-0.5,0.2l-0.2,0.5l0.1,0.7l0.6,0.9l0.8,0.8l1,0.8"
		/>
	<path class="st3" d="M416.9,310.8l-0.1-0.2l-0.3,0l0,0.3l0.2,0.1L416.9,310.8 M415.3,310l-3.2-1.7l-0.7-0.3l-0.4-0.1l-0.4,0.1
		l-0.3,0.3l0,0.7l0.4,0.8l0.8,0.9l0.5,0.4l0.8,0.5"/>
	<path class="st3" d="M412.7,311.9l0.3,1l0.3,1.1l0.3,0.7l0.5,0.6l0.7,0.2l0.6-0.2l0.2-0.9l-0.6-1.1l-1.2-1l-1.2-0.6l-1.1-0.3
		l-0.8,0.1l-0.5,0.6l0,0.9l0.4,1.1l0.8,1.1l0.6,0.6l0.7,0.5"/>
	<path class="st3" d="M412.8,321.5l-0.1-0.6l-0.5-0.6l-0.4-0.2l-0.7-0.2l-0.8,0.1l-0.3,0.5v0.7l0.3,0.7l0.7,0.8l1.1,0.9l1.3,0.9
		l1.1,0.7l1.1,0.7l0.8,0.5l0.7,0.7l0.3,0.5l0,0.5l-0.3,0.3l-0.5-0.1l-1.2-0.5l-1.7-0.9v-2.3v2.3l-0.9-0.4l-0.9-0.4l-0.6-0.3l-0.6,0
		l-0.4,0.2l-0.2,0.4l0.1,0.7l0.5,0.8l0.8,0.7l0.8,0.7l0.5,0.3"/>
	<path class="st3" d="M412.7,329.4l1.6,1.3l0.8,0.7l0.2,0.3l0.1,0.3l-0.1,0.3l-0.4,0.8l-0.2,0.5l0.1,0.7l0.1,0.3l0.4,0.7l-5.2-5.9
		l0.6,0.7l0.1,0.6l-0.2,0.7l-0.2,0.4l-0.2,0.5l0,0.7l0.2,0.7l1.1,1.2l1.2,0.9"/>
	<path class="st3" d="M415.4,337.1l-5.1-2.8l2.6,1.5l1,0.9l0.8,0.7l0.6,0.6l0.3,0.6l0.1,0.4l-0.2,0.2l-0.3,0.1l-0.4-0.1l-0.1-0.3
		l0.1-0.1l0.2,0.2"/>
	<path class="st3" d="M413.5,343.4l0.8,0.3h0.8l0.4-0.4l0-1l-0.8-1.2l-0.8-0.8l-1-0.5l-0.7-0.4l-1-0.2l-0.5,0.1l-0.4,0.5l0.3,0.9
		l0.9,1.1l1.1,1l1.5,1l1.4,0.8l-3.4-1.9l-0.8-0.2l-0.5,0.1l-0.4,0.4l0.1,0.7l0.5,0.9l1.1,1l0.9,0.7"/>
	<path class="st3" d="M417.8,348.9l-7.6-4.1l2.6,1.5l1.1,1l0.9,0.8l0.2,0.3l0.3,0.6l0.1,0.5l-0.1,0.5l-0.3,0.3l-0.6,0l-0.5-0.2
		l-0.4-0.4l-0.4-0.8l-0.3-1l-0.1,0.5l-0.2,0.3l-0.4,0.1l-0.5-0.2l-0.8-0.4l-0.4,0.1l-0.3,0.3l-0.1,0.5l0.2,0.7l0.8,1l0.8,0.6
		l0.8,0.6"/>
</g>
<rect class="st4" width="792" height="612"/>
</svg>
